# xmcd
#
# Track frame offsets:
#	150
#	16639
#	30097
#	46805
#	61528
#	76334
#	89803
#	101240
#	117212
#	137833
#	155315
#
# Disc length: 2422 seconds
#
# Revision: 0
# Processed by: cddbd v1.5.2PL0 Copyright (c) Steve Scherf et al.
# Submitted via: EasyCDDAExtractor 10.2.0.1
#
DISCID=7809740b
DTITLE=Various Artist - HMG Christian Country Vol. 87
DYEAR=2000
DGENRE=Gospel
TTITLE0=Calvary Cowboys - Second Best
TTITLE1=Dwayne Williams - Brand New Piece Of Clay
TTITLE2=Steve Zuwala - So Help Me God
TTITLE3=Tommy Brandt - Til You Start Walking
TTITLE4=Ryan Corbin - In The Light
TTITLE5=Sharon Holtzclaw - I'm Not Giving In
TTITLE6=J. Michaels - Heavenly Love
TTITLE7=Alma Magana - Raised By Faith
TTITLE8=Lynn Peterson - Just A Closer Walk
TTITLE9=Elaine Clontz - Unlimited Treasure
TTITLE10=Jimmy Jacobs - When The Twin Towers Fell
EXTD=
EXTT0=
EXTT1=
EXTT2=
EXTT3=
EXTT4=
EXTT5=
EXTT6=
EXTT7=
EXTT8=
EXTT9=
EXTT10=
PLAYORDER=
